<?xml version="1.0" encoding="UTF-8" standalone="no"?>
<svg height="40" version="1.1" width="40" xmlns="http://www.w3.org/2000/svg" style="overflow: hidden;"><desc>Created with Raphaël 2.0.0</desc>

<defs><linearGradient id="32590--0050af--002c62" x1="0" y1="1" x2="6.123233995736766e-17" y2="0" gradientTransform="matrix(0.5,0,0,0.5,-4,-4)">
<stop offset="0%" stop-color="#0050af"/>
<stop offset="100%" stop-color="#002c62"/></linearGradient>
</defs>

<path style="stroke-linejoin: round; opacity: 0;" fill="none" stroke="#ffffff" d="M29.772,26.433L22.645999999999997,19.307C23.605999999999998,17.724,24.168999999999997,15.871999999999998,24.169999999999998,13.886C24.169,8.093,19.478,3.401,13.688,3.399C7.897,3.401,3.204,8.093,3.204,13.885C3.204,19.674,7.897,24.366,13.688,24.366C15.675,24.366,17.527,23.803,19.11,22.843L26.238,29.97L29.772,26.433ZM7.203,13.885C7.2090000000000005,10.303,10.106,7.407,13.687000000000001,7.399C17.266000000000002,7.407,20.165,10.303,20.171,13.885C20.163999999999998,17.465,17.266,20.361,13.687,20.369C10.106,20.361,7.209,17.465,7.203,13.885Z" stroke-width="3" stroke-linejoin="round" opacity="0" transform="matrix(0.5,0,0,0.5,4,4)"/>
<path style="opacity: 1; fill-opacity: 1;" fill="#333333" stroke="none" d="M29.772,26.433L22.645999999999997,19.307C23.605999999999998,17.724,24.168999999999997,15.871999999999998,24.169999999999998,13.886C24.169,8.093,19.478,3.401,13.688,3.399C7.897,3.401,3.204,8.093,3.204,13.885C3.204,19.674,7.897,24.366,13.688,24.366C15.675,24.366,17.527,23.803,19.11,22.843L26.238,29.97L29.772,26.433ZM7.203,13.885C7.2090000000000005,10.303,10.106,7.407,13.687000000000001,7.399C17.266000000000002,7.407,20.165,10.303,20.171,13.885C20.163999999999998,17.465,17.266,20.361,13.687,20.369C10.106,20.361,7.209,17.465,7.203,13.885Z" transform="matrix(0.5,0,0,0.5,4,4)" opacity="1" fill-opacity="1"/>
<rect x="0" y="0" width="32" height="32" r="0" rx="0" ry="0" fill="#000000" stroke="#000" style="opacity: 0;" opacity="0"/>

</svg>